<svg id="Layer_1" data-name="Layer 1" xmlns="http://www.w3.org/2000/svg" viewBox="0 0 78.37 78.37"><defs><style>.cls-1,.cls-13{fill:#333;}.cls-1{fill-opacity:0.15;}.cls-2{opacity:0.9;}.cls-3{opacity:0.8;}.cls-4{opacity:0.7;}.cls-5{opacity:0.6;}.cls-6{opacity:0.5;}.cls-7{opacity:0.4;}.cls-8{opacity:0.3;}.cls-9{opacity:0.2;}.cls-10{opacity:0.15;}.cls-11{opacity:0.1;}.cls-12{opacity:0.05;}</style></defs><title>progress_light</title><path class="cls-1" d="M55.5,4.73V19.26c0,2.21-1.18,4-2.63,4H51c-1.45,0-2.63-1.79-2.63-4V4.73c0-2.2,1.18-4,2.63-4h1.89C54.32.74,55.5,2.53,55.5,4.73Z" transform="translate(-12.2 -0.74)"/><path class="cls-1" d="M37.35,7.39,44.61,20c1.11,1.91,1,4.05-.28,4.78l-1.63.94c-1.26.73-3.17-.23-4.28-2.14L31.16,11c-1.1-1.9-1-4,.28-4.77l1.64-.94C34.33,4.52,36.25,5.48,37.35,7.39Z" transform="translate(-12.2 -0.74)"/><path class="cls-1" d="M23,18.76,35.55,26c1.9,1.1,2.86,3,2.14,4.27l-.95,1.64c-.72,1.26-2.86,1.38-4.77.28L19.39,25c-1.91-1.1-2.87-3-2.14-4.27l.94-1.63C18.92,17.79,21.05,17.66,23,18.76Z" transform="translate(-12.2 -0.74)"/><path class="cls-1" d="M16.19,35.81H30.72c2.2,0,4,1.18,4,2.63v1.89c0,1.45-1.79,2.63-4,2.63H16.19c-2.2,0-4-1.18-4-2.63V38.44C12.2,37,14,35.81,16.19,35.81Z" transform="translate(-12.2 -0.74)"/><path class="cls-1" d="M18.85,54l12.58-7.26c1.91-1.1,4-1,4.77.28l.95,1.64c.72,1.25-.24,3.17-2.15,4.27L22.42,60.15c-1.91,1.1-4.05,1-4.77-.29l-.95-1.63C16,57,16.94,55.06,18.85,54Z" transform="translate(-12.2 -0.74)"/><path class="cls-1" d="M30.22,68.34l7.26-12.58c1.11-1.91,3-2.87,4.28-2.14l1.63.94c1.26.73,1.39,2.86.29,4.77L36.41,71.92c-1.1,1.9-3,2.86-4.27,2.14l-1.64-1C29.24,72.39,29.12,70.25,30.22,68.34Z" transform="translate(-12.2 -0.74)"/><path class="cls-1" d="M47.26,75.12V60.58c0-2.2,1.18-4,2.63-4h1.89c1.45,0,2.63,1.79,2.63,4V75.12c0,2.2-1.18,4-2.63,4H49.89C48.44,79.11,47.26,77.32,47.26,75.12Z" transform="translate(-12.2 -0.74)"/><path class="cls-1" d="M65.41,72.46,58.14,59.88c-1.1-1.91-1-4.05.29-4.78l1.63-.94c1.26-.73,3.17.23,4.28,2.14L71.6,68.88c1.1,1.91,1,4.05-.28,4.78l-1.64.94C68.43,75.33,66.51,74.37,65.41,72.46Z" transform="translate(-12.2 -0.74)"/><path class="cls-1" d="M79.8,61.09,67.21,53.82c-1.9-1.1-2.86-3-2.14-4.27l1-1.64c.72-1.26,2.86-1.38,4.77-.28l12.58,7.26c1.91,1.11,2.87,3,2.14,4.28l-.94,1.63C83.84,62.06,81.71,62.19,79.8,61.09Z" transform="translate(-12.2 -0.74)"/><path class="cls-1" d="M86.57,44H72c-2.2,0-4-1.18-4-2.63V39.52c0-1.45,1.79-2.63,4-2.63H86.57c2.2,0,4,1.18,4,2.63v1.89C90.56,42.86,88.77,44,86.57,44Z" transform="translate(-12.2 -0.74)"/><path class="cls-1" d="M83.91,25.89,71.33,33.16c-1.91,1.1-4,1-4.77-.28l-1-1.64c-.72-1.25.24-3.17,2.15-4.27L80.34,19.7c1.91-1.1,4-1,4.77.29l1,1.63C86.78,22.88,85.82,24.79,83.91,25.89Z" transform="translate(-12.2 -0.74)"/><path class="cls-1" d="M72.54,11.51,65.28,24.09C64.17,26,62.26,27,61,26.23l-1.63-.94c-1.26-.73-1.39-2.87-.29-4.77L66.35,7.93c1.1-1.91,3-2.87,4.27-2.14l1.64.94C73.52,7.46,73.64,9.6,72.54,11.51Z" transform="translate(-12.2 -0.74)"/><path class="cls-13" d="M55.5,4.73V19.26c0,2.21-1.18,4-2.63,4H51c-1.45,0-2.63-1.79-2.63-4V4.73c0-2.2,1.18-4,2.63-4h1.89C54.32.74,55.5,2.53,55.5,4.73Z" transform="translate(-12.2 -0.74)"/><g class="cls-2"><path class="cls-13" d="M37.35,7.39,44.61,20c1.11,1.91,1,4.05-.28,4.78l-1.63.94c-1.26.73-3.17-.23-4.28-2.14L31.16,11c-1.1-1.9-1-4,.28-4.77l1.64-.94C34.33,4.52,36.25,5.48,37.35,7.39Z" transform="translate(-12.2 -0.74)"/></g><g class="cls-3"><path class="cls-13" d="M23,18.76,35.55,26c1.9,1.1,2.86,3,2.14,4.27l-.95,1.64c-.72,1.26-2.86,1.38-4.77.28L19.39,25c-1.91-1.1-2.87-3-2.14-4.27l.94-1.63C18.92,17.79,21.05,17.66,23,18.76Z" transform="translate(-12.2 -0.74)"/></g><g class="cls-4"><path class="cls-13" d="M16.19,35.81H30.72c2.2,0,4,1.18,4,2.63v1.89c0,1.45-1.79,2.63-4,2.63H16.19c-2.2,0-4-1.18-4-2.63V38.44C12.2,37,14,35.81,16.19,35.81Z" transform="translate(-12.2 -0.74)"/></g><g class="cls-5"><path class="cls-13" d="M18.85,54l12.58-7.26c1.91-1.1,4-1,4.77.28l.95,1.64c.72,1.25-.24,3.17-2.15,4.27L22.42,60.15c-1.91,1.1-4.05,1-4.77-.29l-.95-1.63C16,57,16.94,55.06,18.85,54Z" transform="translate(-12.2 -0.74)"/></g><g class="cls-6"><path class="cls-13" d="M30.22,68.34l7.26-12.58c1.11-1.91,3-2.87,4.28-2.14l1.63.94c1.26.73,1.39,2.86.29,4.77L36.41,71.92c-1.1,1.9-3,2.86-4.27,2.14l-1.64-1C29.24,72.39,29.12,70.25,30.22,68.34Z" transform="translate(-12.2 -0.74)"/></g><g class="cls-7"><path class="cls-13" d="M47.26,75.12V60.58c0-2.2,1.18-4,2.63-4h1.89c1.45,0,2.63,1.79,2.63,4V75.12c0,2.2-1.18,4-2.63,4H49.89C48.44,79.11,47.26,77.32,47.26,75.12Z" transform="translate(-12.2 -0.74)"/></g><g class="cls-8"><path class="cls-13" d="M65.41,72.46,58.14,59.88c-1.1-1.91-1-4.05.29-4.78l1.63-.94c1.26-.73,3.17.23,4.28,2.14L71.6,68.88c1.1,1.91,1,4.05-.28,4.78l-1.64.94C68.43,75.33,66.51,74.37,65.41,72.46Z" transform="translate(-12.2 -0.74)"/></g><g class="cls-9"><path class="cls-13" d="M79.8,61.09,67.21,53.82c-1.9-1.1-2.86-3-2.14-4.27l1-1.64c.72-1.26,2.86-1.38,4.77-.28l12.58,7.26c1.91,1.11,2.87,3,2.14,4.28l-.94,1.63C83.84,62.06,81.71,62.19,79.8,61.09Z" transform="translate(-12.2 -0.74)"/></g><g class="cls-10"><path class="cls-13" d="M86.57,44H72c-2.2,0-4-1.18-4-2.63V39.52c0-1.45,1.79-2.63,4-2.63H86.57c2.2,0,4,1.18,4,2.63v1.89C90.56,42.86,88.77,44,86.57,44Z" transform="translate(-12.2 -0.74)"/></g><g class="cls-11"><path class="cls-13" d="M83.91,25.89,71.33,33.16c-1.91,1.1-4,1-4.77-.28l-1-1.64c-.72-1.25.24-3.17,2.15-4.27L80.34,19.7c1.91-1.1,4-1,4.77.29l1,1.63C86.78,22.88,85.82,24.79,83.91,25.89Z" transform="translate(-12.2 -0.74)"/></g><g class="cls-12"><path class="cls-13" d="M72.54,11.51,65.28,24.09C64.17,26,62.26,27,61,26.23l-1.63-.94c-1.26-.73-1.39-2.87-.29-4.77L66.35,7.93c1.1-1.91,3-2.87,4.27-2.14l1.64.94C73.52,7.46,73.64,9.6,72.54,11.51Z" transform="translate(-12.2 -0.74)"/></g></svg>